<?xml version="1.0" standalone="no"?>
<!DOCTYPE svg PUBLIC "-//W3C//DTD SVG 20010904//EN"
 "http://www.w3.org/TR/2001/REC-SVG-20010904/DTD/svg10.dtd">
<svg version="1.0" xmlns="http://www.w3.org/2000/svg"
 width="454.000000pt" height="383.000000pt" viewBox="0 0 454.000000 383.000000"
 preserveAspectRatio="xMidYMid meet">

<g transform="translate(0.000000,383.000000) scale(0.100000,-0.100000)"
fill="#000000" stroke="none">
<path d="M2634 3816 c-85 -27 -164 -101 -194 -180 -34 -91 -35 -73 45 -1060
16 -202 29 -242 96 -300 75 -64 179 -72 266 -20 51 29 99 98 107 152 16 102
87 1076 83 1133 -7 114 -73 211 -175 259 -58 28 -169 36 -228 16z"/>
<path d="M3395 2371 c-11 -5 -28 -17 -37 -27 -9 -11 -152 -377 -316 -814 -165
-437 -303 -803 -307 -813 -4 -9 -10 -17 -14 -17 -4 0 -72 156 -151 347 -79
192 -152 366 -163 388 -27 56 -53 75 -108 75 -42 0 -50 -4 -79 -37 -18 -21
-68 -93 -111 -161 l-78 -124 -11 39 c-5 21 -67 264 -135 541 -69 277 -132 516
-139 531 -17 32 -54 51 -99 51 -39 0 -72 -21 -91 -59 -8 -15 -87 -394 -176
-842 -89 -448 -164 -816 -166 -818 -2 -2 -7 -2 -10 1 -3 4 -64 217 -135 474
-153 557 -143 525 -175 555 l-26 24 -405 0 -405 0 -30 -34 c-27 -30 -30 -39
-26 -83 6 -57 27 -84 77 -98 20 -6 169 -10 343 -10 286 0 308 -1 317 -18 5
-10 77 -263 160 -563 240 -868 225 -820 260 -851 52 -46 127 -33 162 27 11 18
81 348 174 820 87 434 161 799 165 810 9 25 3 48 119 -430 50 -203 98 -385
106 -403 19 -41 73 -66 121 -57 41 7 60 30 175 210 51 80 96 142 100 138 5 -5
79 -177 164 -383 86 -206 166 -393 178 -415 45 -80 120 -104 173 -54 30 28 23
10 344 864 156 413 286 754 290 758 4 5 44 -101 89 -235 45 -133 87 -250 94
-259 29 -37 47 -39 457 -39 256 0 408 4 421 10 27 15 49 62 49 106 0 28 -8 44
-34 70 l-34 34 -345 0 -345 0 -122 364 c-87 261 -129 371 -145 386 -25 24 -88
35 -120 21z"/>
<path d="M2655 2139 c-16 -4 -46 -22 -67 -39 -133 -110 -87 -328 80 -376 93
-27 183 6 238 88 57 84 52 182 -14 258 -59 70 -147 96 -237 69z"/>
</g>
</svg>
