<?xml version="1.0" standalone="no"?>
<!DOCTYPE svg PUBLIC "-//W3C//DTD SVG 20010904//EN"
 "http://www.w3.org/TR/2001/REC-SVG-20010904/DTD/svg10.dtd">
<svg version="1.0" xmlns="http://www.w3.org/2000/svg"
 width="512.000000pt" height="512.000000pt" viewBox="0 0 512.000000 512.000000"
 preserveAspectRatio="xMidYMid meet">

<g transform="translate(0.000000,512.000000) scale(0.100000,-0.100000)"
fill="#000000" stroke="none">
<path d="M2560 4992 l0 -132 -84 0 c-107 0 -288 -23 -434 -56 -316 -70 -656
-234 -914 -441 -229 -182 -433 -429 -570 -688 l-47 -91 229 -114 c126 -63 231
-112 233 -110 2 3 27 47 56 98 249 438 690 757 1188 858 67 13 172 27 233 31
l110 6 0 -129 0 -129 257 258 258 257 -258 257 -257 258 0 -133z"/>
<path d="M3470 4380 c-63 -126 -112 -231 -110 -233 3 -2 47 -27 98 -56 237
-135 454 -340 604 -571 166 -255 268 -560 285 -850 l6 -110 -129 0 -129 0 258
-257 257 -258 257 258 258 257 -133 0 -132 0 0 84 c0 107 -23 288 -56 434 -70
316 -234 656 -441 914 -182 229 -429 433 -688 570 l-91 47 -114 -229z"/>
<path d="M2350 3561 c-386 -85 -675 -362 -782 -749 -18 -65 -22 -104 -22 -252
0 -192 11 -253 74 -403 93 -224 313 -444 537 -537 150 -63 211 -74 403 -74
192 0 253 11 403 74 224 93 444 313 537 537 63 150 74 211 74 403 0 192 -11
253 -74 403 -93 224 -313 444 -537 537 -134 56 -214 72 -378 76 -120 3 -167 0
-235 -15z"/>
<path d="M250 2815 l-255 -255 133 0 132 0 0 -84 c0 -107 23 -288 56 -434 70
-316 234 -656 441 -914 182 -229 429 -433 688 -570 l91 -47 114 229 c63 126
112 231 110 233 -3 2 -47 27 -98 56 -438 249 -757 690 -858 1188 -13 67 -27
172 -31 233 l-6 110 129 0 129 0 -255 255 c-140 140 -257 255 -260 255 -3 0
-120 -115 -260 -255z"/>
<path d="M4092 1665 c-132 -236 -339 -456 -572 -607 -255 -166 -560 -268 -850
-285 l-110 -6 0 129 0 129 -257 -258 -258 -257 258 -257 257 -258 0 133 0 132
84 0 c107 0 288 23 434 56 316 70 656 234 914 441 229 182 433 429 570 688
l47 91 -224 112 c-124 62 -228 112 -233 112 -4 0 -31 -43 -60 -95z"/>
</g>
</svg>
