<?xml version="1.0" standalone="no"?>
<!DOCTYPE svg PUBLIC "-//W3C//DTD SVG 20010904//EN"
 "http://www.w3.org/TR/2001/REC-SVG-20010904/DTD/svg10.dtd">
<svg version="1.0" xmlns="http://www.w3.org/2000/svg"
 width="480.000000pt" height="640.000000pt" viewBox="0 0 480.000000 640.000000"
 preserveAspectRatio="xMidYMid meet">

<g transform="translate(0.000000,640.000000) scale(0.100000,-0.100000)"
fill="#000000" stroke="none">
<path d="M1761 6379 c-31 -29 -51 -80 -51 -128 0 -78 -65 -71 690 -71 l678 0
7 31 c12 52 -4 117 -37 154 l-30 35 -617 0 c-617 0 -617 0 -640 -21z"/>
<path d="M2315 5940 l-2060 -5 -55 -26 c-30 -14 -70 -38 -88 -53 -70 -60 -112
-170 -112 -298 l0 -68 2401 0 2401 0 -4 93 c-10 220 -139 345 -373 359 -27 2
-977 1 -2110 -2z"/>
<path d="M357 5208 c2 -24 60 -720 128 -1548 205 -2477 273 -3290 283 -3391
11 -106 31 -156 84 -205 73 -69 -57 -64 1548 -64 1413 0 1452 1 1489 19 56 29
107 91 125 153 8 29 22 143 30 253 8 110 101 1225 206 2478 104 1254 190 2294
190 2313 l0 34 -2044 0 -2044 0 5 -42z m851 -544 c13 -9 30 -30 37 -47 17 -41
112 -1181 102 -1220 -13 -49 -50 -77 -102 -77 -111 0 -110 -2 -155 519 -64
727 -65 745 -51 780 27 65 106 86 169 45z m2496 12 c21 -9 39 -27 50 -51 18
-37 17 -50 -29 -594 -25 -306 -51 -579 -56 -608 -14 -70 -47 -103 -106 -103
-24 0 -53 5 -64 10 -28 16 -49 63 -50 117 -2 51 87 1099 97 1145 7 34 40 77
68 88 31 13 53 12 90 -4z m-1092 -118 c84 -25 157 -120 174 -226 6 -40 0 -206
-36 -966 -11 -225 -20 -430 -20 -457 l0 -49 310 0 c325 0 386 -6 442 -43 49
-33 95 -100 107 -156 14 -68 -6 -140 -67 -238 -284 -457 -1092 -1728 -1118
-1760 -120 -148 -376 -99 -438 85 -21 61 -21 105 14 852 17 355 30 655 30 668
l0 22 -337 0 c-333 0 -339 1 -388 24 -127 59 -176 204 -112 331 23 45 18 38
651 1040 258 407 479 754 492 772 71 94 187 134 296 101z m-1172 -2637 c38
-27 47 -56 59 -186 90 -1016 101 -1175 87 -1209 -41 -99 -192 -80 -211 27 -3
17 -30 312 -60 654 -61 706 -61 693 20 729 35 16 69 11 105 -15z m2029 -232
c29 -27 41 -60 41 -112 0 -113 -82 -1005 -96 -1045 -37 -102 -184 -92 -210 14
-5 21 63 891 83 1049 9 71 53 115 115 115 31 0 51 -6 67 -21z"/>
</g>
</svg>
