<?xml version="1.0" standalone="no"?>
<!DOCTYPE svg PUBLIC "-//W3C//DTD SVG 20010904//EN"
 "http://www.w3.org/TR/2001/REC-SVG-20010904/DTD/svg10.dtd">
<svg version="1.0" xmlns="http://www.w3.org/2000/svg"
 width="512.000000pt" height="512.000000pt" viewBox="0 0 512.000000 512.000000"
 preserveAspectRatio="xMidYMid meet">

<g transform="translate(0.000000,512.000000) scale(0.100000,-0.100000)"
fill="#000000" stroke="none">
<path d="M2725 5101 c-16 -10 -37 -27 -46 -37 -8 -10 -333 -659 -722 -1440
-769 -1547 -733 -1465 -685 -1542 12 -20 38 -42 62 -53 38 -17 76 -19 558 -19
l517 0 -5 -32 c-14 -96 -204 -1815 -204 -1846 0 -72 62 -132 137 -132 39 0 88
32 116 77 13 21 338 655 721 1409 771 1520 727 1420 662 1492 l-34 37 -551 3
c-303 1 -551 5 -551 7 0 2 50 434 110 960 61 526 110 972 110 993 0 70 -68
142 -135 142 -16 0 -43 -8 -60 -19z"/>
<path d="M2110 4781 c-582 -118 -1104 -471 -1436 -971 -254 -381 -375 -784
-377 -1245 0 -188 11 -306 44 -465 153 -734 662 -1349 1352 -1635 95 -39 247
-89 253 -83 5 6 65 540 61 544 -2 2 -34 15 -73 29 -299 112 -600 353 -793 633
-317 460 -389 1061 -189 1585 155 405 456 732 859 934 l110 55 159 319 c181
361 178 329 30 300z"/>
<path d="M3170 4733 c0 -5 -14 -127 -31 -271 -17 -145 -29 -265 -27 -267 2 -2
53 -24 113 -50 246 -105 467 -264 631 -456 294 -343 438 -749 421 -1193 -21
-590 -330 -1109 -843 -1418 -51 -30 -120 -67 -155 -83 l-64 -27 -163 -320
c-90 -176 -161 -322 -158 -325 3 -3 45 2 93 11 937 181 1664 934 1813 1876 34
213 32 512 -5 725 -142 830 -721 1504 -1524 1776 -91 31 -101 33 -101 22z"/>
</g>
</svg>
